<svg width="95" height="78" viewBox="0 0 95 78" fill="none" xmlns="http://www.w3.org/2000/svg">
<path d="M45.2738 56.719C46.8819 55.7156 48.9726 54.7354 50.5725 53.3595C53.9065 50.4547 57.077 47.4179 60.2474 44.3812C66.2272 38.5915 72.2279 32.7142 78.7242 26.4001C72.1677 26.8639 66.4658 30.6824 59.5372 27.8148C60.4359 26.919 60.8308 26.0875 61.3345 26.0231C69.2094 24.9495 76.4973 22.2528 83.521 19.0296C89.3188 16.4384 91.5595 18.0879 90.8391 23.936C90.0556 30.0469 89.9184 36.3129 89.4119 42.4903C89.3653 43.498 88.7436 44.4604 88.3569 45.6644C84.8071 42.9595 84.8071 42.9595 84.6162 29.1115C83.6042 30.0728 82.7475 30.7934 81.9833 31.5363C74.3699 39.2495 66.8488 46.985 59.0717 54.5663C56.5311 57.0132 53.6633 59.1963 50.6026 60.9626C45.1613 64.1025 40.3097 62.7525 37.2271 57.2882C35.6502 54.5012 34.7534 51.3217 34.0412 48.1865C33.2285 44.6566 33.0329 40.997 32.4259 37.4239C31.957 34.9029 31.19 32.403 30.5574 29.75C27.4427 30.1139 25.8511 31.8623 24.1169 33.3912C16.7978 39.8783 10.7376 47.2234 5.5459 55.4254C4.92424 56.3877 4.46622 57.482 3.58859 58.2903C3.0931 58.7271 1.9723 58.9212 1.23363 58.7438C0.864302 58.6552 0.356933 57.5144 0.390763 56.9667C0.655888 55.4556 1.14774 53.8137 1.85351 52.501C6.85694 43.0496 13.4465 34.72 21.6724 27.7096C23.2933 26.2461 25.2414 25.0464 27.2188 24.1316C30.8335 22.4984 33.8595 23.3175 35.6586 26.8063C37.1222 29.6587 37.9267 32.8161 38.5465 35.9291C39.4972 40.511 39.8518 45.1352 40.8026 49.7171C41.3849 52.1727 42.1309 54.7602 45.2738 56.719Z" fill="black" />
</svg>
